# xmcd
#
# Track frame offsets:
#	150
#	17182
#	37737
#	48920
#	62427
#	81742
#	94945
#	105759
#	123592
#	142743
#	157182
#	175382
#	195412
#	220883
#	244794
#	271680
#	297986
#	313190
#	333609
#
# Disc length: 4748 seconds
#
# Revision: 0
# Processed by: cddbd v1.5.2PL0 Copyright (c) Steve Scherf et al.
# Submitted via: EasyCDDAExtractor 15.3.0.1
#
DISCID=0e128a13
DTITLE=Διάφοροι - Στου Τραγουδιού Την Όχθη 04 Disc 01
DYEAR=2008
DGENRE=Ελαφρά
TTITLE0=NIKOS PAPAZOGLOU - NIHTERINO A'
TTITLE1=MELINA KANA - VALE KRASI-
TTITLE2=PANTELIS THALASSINOS - KARAVIA STI STERIA-
TTITLE3=GERASIMOS ANDREATOS - O GREMOS-
TTITLE4=MANOLIS LIDAKIS,HAINIDES - IHA MIA AGAPI MIA FORA-
TTITLE5=ELEFTHERIA ARVANITAKI - STA RODA TIS AVLIS MOU-
TTITLE6=SOKRATIS MALAMAS - ARRITO-
TTITLE7=ANASTASIA MOUTSATSOU,MARINA SKIADARESI - POSO SE THELO-
TTITLE8=VAGELIS GERMANOS - ELEFTHEROS HRONOS-
TTITLE9=VASILIS KAZOULIS - KOPELES GIA LIGO-
TTITLE10=NIKOS ZIOGALAS - VERIA ,THESSALONIKI,ATHINA-
TTITLE11=CHRISTOS THIVEOS - GINEKA -
TTITLE12=KRISTI STASINOPOULOU - PETAME-
TTITLE13=DANIEL ARMANDO JUSID,HARIS KATSIMIHAS,ALEJANDRO DIAZ -  MANA GI
TTITLE14=SAVINA GIANATOU - AH MON DIEU-
TTITLE15=PSARANTONIS - TH'ANEVO STON OURANO-
TTITLE16=VICKY MOSHOLIOU -  APOPSE PALI-
TTITLE17=ARGIRO KAPAROU - METAXI INE TO VLEMMA SOU-
TTITLE18=KOSTAS MAKEDONAS - O TRITOS ANTHROPOS(CONFESSA) 
EXTD=
EXTT0=
EXTT1=
EXTT2=
EXTT3=
EXTT4=
EXTT5=
EXTT6=
EXTT7=
EXTT8=
EXTT9=
EXTT10=
EXTT11=
EXTT12=
EXTT13=
EXTT14=
EXTT15=
EXTT16=
EXTT17=
EXTT18=
PLAYORDER=
